<svg id="visual" viewBox="0 0 960 540" width="960" height="540" xmlns="http://www.w3.org/2000/svg" xmlns:xlink="http://www.w3.org/1999/xlink" version="1.1"><rect x="0" y="0" width="960" height="540" fill="#001220"></rect><path d="M0 202L22.8 206.5C45.7 211 91.3 220 137 216.3C182.7 212.7 228.3 196.3 274 196.7C319.7 197 365.3 214 411.2 213.8C457 213.7 503 196.3 548.8 192.5C594.7 188.7 640.3 198.3 686 204C731.7 209.7 777.3 211.3 823 207.8C868.7 204.3 914.3 195.7 937.2 191.3L960 187L960 0L937.2 0C914.3 0 868.7 0 823 0C777.3 0 731.7 0 686 0C640.3 0 594.7 0 548.8 0C503 0 457 0 411.2 0C365.3 0 319.7 0 274 0C228.3 0 182.7 0 137 0C91.3 0 45.7 0 22.8 0L0 0Z" fill="#162dd2"></path><path d="M0 153L22.8 159.5C45.7 166 91.3 179 137 187.2C182.7 195.3 228.3 198.7 274 194.8C319.7 191 365.3 180 411.2 171.2C457 162.3 503 155.7 548.8 160.3C594.7 165 640.3 181 686 185.7C731.7 190.3 777.3 183.7 823 181.3C868.7 179 914.3 181 937.2 182L960 183L960 0L937.2 0C914.3 0 868.7 0 823 0C777.3 0 731.7 0 686 0C640.3 0 594.7 0 548.8 0C503 0 457 0 411.2 0C365.3 0 319.7 0 274 0C228.3 0 182.7 0 137 0C91.3 0 45.7 0 22.8 0L0 0Z" fill="#1b25bc"></path><path d="M0 143L22.8 142C45.7 141 91.3 139 137 143.5C182.7 148 228.3 159 274 159.8C319.7 160.7 365.3 151.3 411.2 148.8C457 146.3 503 150.7 548.8 151C594.7 151.3 640.3 147.7 686 151.2C731.7 154.7 777.3 165.3 823 164.8C868.7 164.3 914.3 152.7 937.2 146.8L960 141L960 0L937.2 0C914.3 0 868.7 0 823 0C777.3 0 731.7 0 686 0C640.3 0 594.7 0 548.8 0C503 0 457 0 411.2 0C365.3 0 319.7 0 274 0C228.3 0 182.7 0 137 0C91.3 0 45.7 0 22.8 0L0 0Z" fill="#1c1da6"></path><path d="M0 144L22.8 139.7C45.7 135.3 91.3 126.7 137 124C182.7 121.3 228.3 124.7 274 126.7C319.7 128.7 365.3 129.3 411.2 132.3C457 135.3 503 140.7 548.8 138.5C594.7 136.3 640.3 126.7 686 123C731.7 119.3 777.3 121.7 823 124.5C868.7 127.3 914.3 130.7 937.2 132.3L960 134L960 0L937.2 0C914.3 0 868.7 0 823 0C777.3 0 731.7 0 686 0C640.3 0 594.7 0 548.8 0C503 0 457 0 411.2 0C365.3 0 319.7 0 274 0C228.3 0 182.7 0 137 0C91.3 0 45.7 0 22.8 0L0 0Z" fill="#1b1691"></path><path d="M0 113L22.8 112C45.7 111 91.3 109 137 110.3C182.7 111.7 228.3 116.3 274 117.2C319.7 118 365.3 115 411.2 108.7C457 102.3 503 92.7 548.8 85.7C594.7 78.7 640.3 74.3 686 75C731.7 75.7 777.3 81.3 823 86.3C868.7 91.3 914.3 95.7 937.2 97.8L960 100L960 0L937.2 0C914.3 0 868.7 0 823 0C777.3 0 731.7 0 686 0C640.3 0 594.7 0 548.8 0C503 0 457 0 411.2 0C365.3 0 319.7 0 274 0C228.3 0 182.7 0 137 0C91.3 0 45.7 0 22.8 0L0 0Z" fill="#180f7d"></path><path d="M0 86L22.8 84.2C45.7 82.3 91.3 78.7 137 75.8C182.7 73 228.3 71 274 71.5C319.7 72 365.3 75 411.2 77C457 79 503 80 548.8 80.3C594.7 80.7 640.3 80.3 686 78.7C731.7 77 777.3 74 823 72.8C868.7 71.7 914.3 72.3 937.2 72.7L960 73L960 0L937.2 0C914.3 0 868.7 0 823 0C777.3 0 731.7 0 686 0C640.3 0 594.7 0 548.8 0C503 0 457 0 411.2 0C365.3 0 319.7 0 274 0C228.3 0 182.7 0 137 0C91.3 0 45.7 0 22.8 0L0 0Z" fill="#15086a"></path><path d="M0 28L22.8 27.5C45.7 27 91.3 26 137 27.7C182.7 29.3 228.3 33.7 274 37.7C319.7 41.7 365.3 45.3 411.2 44.8C457 44.3 503 39.7 548.8 35.5C594.7 31.3 640.3 27.7 686 26.8C731.7 26 777.3 28 823 29.2C868.7 30.3 914.3 30.7 937.2 30.8L960 31L960 0L937.2 0C914.3 0 868.7 0 823 0C777.3 0 731.7 0 686 0C640.3 0 594.7 0 548.8 0C503 0 457 0 411.2 0C365.3 0 319.7 0 274 0C228.3 0 182.7 0 137 0C91.3 0 45.7 0 22.8 0L0 0Z" fill="#100357"></path></svg>