<svg id="visual" viewBox="0 0 960 540" width="960" height="540" xmlns="http://www.w3.org/2000/svg" xmlns:xlink="http://www.w3.org/1999/xlink" version="1.1"><rect x="0" y="0" width="960" height="540" fill="#fafafa"></rect><path d="M0 360L40 361.7C80 363.3 160 366.7 240 355.3C320 344 400 318 480 318.2C560 318.3 640 344.7 720 354C800 363.3 880 355.7 920 351.8L960 348L960 541L920 541C880 541 800 541 720 541C640 541 560 541 480 541C400 541 320 541 240 541C160 541 80 541 40 541L0 541Z" fill="#4f54d2"></path><path d="M0 414L40 421.2C80 428.3 160 442.7 240 442.7C320 442.7 400 428.3 480 430C560 431.7 640 449.3 720 451.5C800 453.7 880 440.3 920 433.7L960 427L960 541L920 541C880 541 800 541 720 541C640 541 560 541 480 541C400 541 320 541 240 541C160 541 80 541 40 541L0 541Z" fill="#5763e8"></path></svg>