<svg id="visual" viewBox="0 0 960 540" width="960" height="540" xmlns="http://www.w3.org/2000/svg" xmlns:xlink="http://www.w3.org/1999/xlink" version="1.1"><rect x="0" y="0" width="960" height="540" fill="#fafafa"></rect><path d="M0 321L26.7 325.8C53.3 330.7 106.7 340.3 160 338.3C213.3 336.3 266.7 322.7 320 316.5C373.3 310.3 426.7 311.7 480 319.5C533.3 327.3 586.7 341.7 640 350C693.3 358.3 746.7 360.7 800 361.7C853.3 362.7 906.7 362.3 933.3 362.2L960 362L960 541L933.3 541C906.7 541 853.3 541 800 541C746.7 541 693.3 541 640 541C586.7 541 533.3 541 480 541C426.7 541 373.3 541 320 541C266.7 541 213.3 541 160 541C106.7 541 53.3 541 26.7 541L0 541Z" fill="#5e72ff"></path><path d="M0 346L26.7 353.7C53.3 361.3 106.7 376.7 160 377C213.3 377.3 266.7 362.7 320 350.8C373.3 339 426.7 330 480 333.5C533.3 337 586.7 353 640 365.3C693.3 377.7 746.7 386.3 800 380.7C853.3 375 906.7 355 933.3 345L960 335L960 541L933.3 541C906.7 541 853.3 541 800 541C746.7 541 693.3 541 640 541C586.7 541 533.3 541 480 541C426.7 541 373.3 541 320 541C266.7 541 213.3 541 160 541C106.7 541 53.3 541 26.7 541L0 541Z" fill="#5763e8"></path><path d="M0 396L26.7 390.8C53.3 385.7 106.7 375.3 160 373.2C213.3 371 266.7 377 320 383.5C373.3 390 426.7 397 480 394.5C533.3 392 586.7 380 640 379.7C693.3 379.3 746.7 390.7 800 388.5C853.3 386.3 906.7 370.7 933.3 362.8L960 355L960 541L933.3 541C906.7 541 853.3 541 800 541C746.7 541 693.3 541 640 541C586.7 541 533.3 541 480 541C426.7 541 373.3 541 320 541C266.7 541 213.3 541 160 541C106.7 541 53.3 541 26.7 541L0 541Z" fill="#4f54d2"></path><path d="M0 441L26.7 434.5C53.3 428 106.7 415 160 406.5C213.3 398 266.7 394 320 397.5C373.3 401 426.7 412 480 413.2C533.3 414.3 586.7 405.7 640 403.7C693.3 401.7 746.7 406.3 800 412.2C853.3 418 906.7 425 933.3 428.5L960 432L960 541L933.3 541C906.7 541 853.3 541 800 541C746.7 541 693.3 541 640 541C586.7 541 533.3 541 480 541C426.7 541 373.3 541 320 541C266.7 541 213.3 541 160 541C106.7 541 53.3 541 26.7 541L0 541Z" fill="#4645bc"></path><path d="M0 454L26.7 453.5C53.3 453 106.7 452 160 453.2C213.3 454.3 266.7 457.7 320 457.7C373.3 457.7 426.7 454.3 480 449.5C533.3 444.7 586.7 438.3 640 440.3C693.3 442.3 746.7 452.7 800 457C853.3 461.3 906.7 459.7 933.3 458.8L960 458L960 541L933.3 541C906.7 541 853.3 541 800 541C746.7 541 693.3 541 640 541C586.7 541 533.3 541 480 541C426.7 541 373.3 541 320 541C266.7 541 213.3 541 160 541C106.7 541 53.3 541 26.7 541L0 541Z" fill="#3d37a7"></path><path d="M0 475L26.7 475.3C53.3 475.7 106.7 476.3 160 473C213.3 469.7 266.7 462.3 320 458.8C373.3 455.3 426.7 455.7 480 456.3C533.3 457 586.7 458 640 461C693.3 464 746.7 469 800 469.8C853.3 470.7 906.7 467.3 933.3 465.7L960 464L960 541L933.3 541C906.7 541 853.3 541 800 541C746.7 541 693.3 541 640 541C586.7 541 533.3 541 480 541C426.7 541 373.3 541 320 541C266.7 541 213.3 541 160 541C106.7 541 53.3 541 26.7 541L0 541Z" fill="#342992"></path><path d="M0 491L26.7 490.8C53.3 490.7 106.7 490.3 160 493C213.3 495.7 266.7 501.3 320 502.5C373.3 503.7 426.7 500.3 480 498C533.3 495.7 586.7 494.3 640 495.3C693.3 496.3 746.7 499.7 800 500.3C853.3 501 906.7 499 933.3 498L960 497L960 541L933.3 541C906.7 541 853.3 541 800 541C746.7 541 693.3 541 640 541C586.7 541 533.3 541 480 541C426.7 541 373.3 541 320 541C266.7 541 213.3 541 160 541C106.7 541 53.3 541 26.7 541L0 541Z" fill="#2a1b7e"></path></svg>