<svg id="visual" viewBox="0 0 960 540" width="960" height="540" xmlns="http://www.w3.org/2000/svg" xmlns:xlink="http://www.w3.org/1999/xlink" version="1.1"><rect x="0" y="0" width="960" height="540" fill="#fafafa"></rect><path d="M0 178L40 176.3C80 174.7 160 171.3 240 182.7C320 194 400 220 480 219.8C560 219.7 640 193.3 720 184C800 174.7 880 182.3 920 186.2L960 190L960 0L920 0C880 0 800 0 720 0C640 0 560 0 480 0C400 0 320 0 240 0C160 0 80 0 40 0L0 0Z" fill="#4f54d2"></path><path d="M0 124L40 116.8C80 109.7 160 95.3 240 95.3C320 95.3 400 109.7 480 108C560 106.3 640 88.7 720 86.5C800 84.3 880 97.7 920 104.3L960 111L960 0L920 0C880 0 800 0 720 0C640 0 560 0 480 0C400 0 320 0 240 0C160 0 80 0 40 0L0 0Z" fill="#5763e8"></path></svg>